<?xml version="1.0" encoding="utf-8"?>
<!-- Generator: Adobe Illustrator 21.0.0, SVG Export Plug-In . SVG Version: 6.00 Build 0)  -->
<svg version="1.1" id="Layer_1" xmlns="http://www.w3.org/2000/svg" xmlns:xlink="http://www.w3.org/1999/xlink" x="0px" y="0px"
	 viewBox="0 0 1080 1080" style="enable-background:new 0 0 1080 1080;" xml:space="preserve">
<style type="text/css">
	.st0{fill:#141A66;}
	.st1{fill:#0E699C;}
</style>
<g>
	<path class="st0" d="M332.6,481.2c-15.2-16.2-37.1-25.7-60.8-24c-42.5,3-74.7,40.6-72,84c0.8,12.3,4.3,23.7,9.9,33.7L332.6,481.2z"
		/>
	<g>
		<path class="st1" d="M256.7,539.1l-55-20.6c-4.6,19.6-2.2,40.2,8.5,58.3L256.7,539.1z"/>
		<path class="st1" d="M263.2,541.5l-49.8,40.2c0.5,0.7,0.9,1.3,1.4,2c25.4,34.7,73.7,41.6,107.8,15.5c9.7-7.4,17.2-16.7,22.4-27
			L263.2,541.5z"/>
	</g>
	<path d="M411.2,545.2c-1.6,2.3-3.9,4.2-6.8,5.8c-2.9,1.6-6.4,2.4-10.4,2.4c-4.2,0-7.9-1-11.4-2.9c-3.4-1.9-6.2-4.7-8.2-8.1
		c-2-3.5-3-7.4-3-11.9c0-4.5,1-8.5,3.1-12.1c2.1-3.5,4.8-6.3,8.3-8.3c3.5-2,7.3-3,11.4-3c3.8,0,7.2,0.8,10.1,2.3
		c2.9,1.5,5.1,3.4,6.8,5.7c1.7,2.3,2.8,4.6,3.4,6.9l-0.1,0.1c-0.6,0.2-1.1,0.3-1.7,0.3c-0.9,0-1.7-0.2-2.5-0.7
		c-0.8-0.5-1.4-1.1-1.9-1.9c-1.3-2.2-3.1-4.2-5.4-5.7c-2.3-1.6-5.2-2.4-8.8-2.4c-3.2,0-6.2,0.8-8.9,2.4c-2.7,1.6-4.9,3.8-6.5,6.6
		c-1.6,2.8-2.4,6-2.4,9.5c0,3.5,0.8,6.7,2.3,9.6c1.5,2.9,3.7,5.1,6.4,6.7c2.7,1.6,5.7,2.4,9.1,2.4c4.8,0,8.3-1.3,10.8-3.8
		c2.4-2.5,4.1-5.3,5.1-8.3l4.6,1.7C414,540.7,412.9,542.9,411.2,545.2z"/>
	<path d="M460.2,551.8c-1.6-0.8-2.9-2-4-3.4l-9.8-13.4l-1.2-1.6c-0.3-0.3-0.4-0.7-0.4-1.1c0-0.5,0.2-1,0.6-1.4
		c0.4-0.4,0.8-0.6,1.4-0.6h0.7c3.8,0,6.7-0.9,8.6-2.7c1.9-1.8,2.9-4,2.9-6.6c0-2.6-0.9-4.7-2.7-6.4c-1.8-1.7-4.7-2.5-8.7-2.5h-10.6
		V553h-4.7v-45.3h15.7c3.5,0,6.5,0.6,8.9,1.8c2.4,1.2,4.1,2.8,5.3,4.8c1.1,2,1.7,4.2,1.7,6.6c0,3.7-1.2,6.7-3.5,9
		c-2.3,2.2-5.3,3.6-8.9,4l14,19.2C463.5,553,461.8,552.6,460.2,551.8z"/>
	<path d="M516.6,507.6L499,533.8v14.3c0,1.3-0.5,2.5-1.4,3.4c-1,0.9-2.1,1.4-3.4,1.4v-19.1l-17.6-26.2c1.8,0,3.5,0.4,5.1,1.3
		c1.6,0.9,2.9,2,3.8,3.5l11.2,16.9l14.5-21.7H516.6z"/>
	<path d="M559.1,509.5c2.4,1.3,4.2,2.9,5.3,5c1.1,2.1,1.7,4.3,1.7,6.8c0,2.6-0.6,4.9-1.9,7c-1.3,2.1-3.1,3.8-5.6,5
		c-2.5,1.3-5.4,1.9-8.9,1.9c-1.9,0-3.1-0.5-3.8-1.5c-0.6-1-1-1.9-1-2.7v-0.2h4.5c2.6,0,4.8-0.5,6.6-1.4c1.8-0.9,3-2.1,3.9-3.5
		c0.8-1.4,1.2-3,1.2-4.6c0-2.6-0.9-4.8-2.7-6.6c-1.8-1.8-4.7-2.7-8.8-2.7h-10.1V553H535v-45.3h15.2
		C553.7,507.6,556.7,508.3,559.1,509.5z"/>
	<path d="M605.5,508.9c0.9,0.9,1.3,1.9,1.3,3.2h-15.1V553h-4.8v-40.9h-10.7c-1.3,0-2.3-0.4-3.2-1.3c-0.9-0.9-1.3-1.9-1.3-3.1h30.6
		C603.6,507.6,604.6,508.1,605.5,508.9z"/>
	<path d="M651.2,510.4c3.5,2,6.2,4.8,8.2,8.3c2,3.5,3,7.4,3,11.6c0,4.3-1,8.2-3,11.8c-2,3.6-4.7,6.4-8.2,8.4
		c-3.5,2.1-7.4,3.1-11.7,3.1c-4.2,0-8.1-1-11.5-3c-3.5-2-6.2-4.8-8.2-8.3c-2-3.5-3-7.4-3-11.6c0-4.3,1-8.2,3-11.8
		c2-3.6,4.7-6.4,8.2-8.4c3.5-2.1,7.4-3.1,11.7-3.1C643.8,507.3,647.7,508.3,651.2,510.4z M648.7,546.6c2.7-1.7,4.8-3.9,6.4-6.7
		c1.5-2.8,2.3-5.9,2.3-9.3c0-3.4-0.8-6.5-2.3-9.4c-1.5-2.9-3.7-5.2-6.4-6.9c-2.7-1.7-5.8-2.6-9.2-2.6c-3.4,0-6.5,0.8-9.2,2.5
		c-2.7,1.7-4.8,3.9-6.3,6.7c-1.5,2.8-2.3,5.9-2.3,9.3c0,3.4,0.8,6.6,2.3,9.4c1.5,2.9,3.7,5.2,6.4,6.8c2.7,1.7,5.8,2.5,9.3,2.5
		C643,549.1,646,548.3,648.7,546.6z"/>
	<path d="M724,531.6c0,1.8-0.1,3.2-0.2,4.2c-0.4,3.4-1.6,6.4-3.4,9.1c-1.8,2.7-4.2,4.8-7.3,6.3c-3,1.5-6.5,2.3-10.4,2.3
		c-4.5,0-8.5-1-11.9-3c-3.4-2-6.1-4.8-7.9-8.2c-1.9-3.5-2.8-7.4-2.8-11.7c0-4.3,1-8.3,3-11.8c2-3.5,4.7-6.3,8.2-8.4
		c3.5-2.1,7.4-3.1,11.6-3.1c5.2,0,9.5,1.3,12.9,3.8c3.4,2.6,5.8,5.8,7.1,9.7c-0.6,0.2-1.3,0.3-1.8,0.3c-0.9,0-1.8-0.2-2.6-0.6
		c-0.8-0.4-1.5-1-2-1.8c-1.3-2-3.2-3.7-5.4-5c-2.3-1.3-5.1-2-8.4-2c-3.4,0-6.4,0.9-9.1,2.6c-2.7,1.7-4.8,4-6.3,6.8
		c-1.5,2.8-2.3,5.9-2.3,9.2c0,3.5,0.7,6.6,2.2,9.5c1.4,2.9,3.5,5.1,6.2,6.8c2.7,1.7,5.8,2.5,9.4,2.5c2.7,0,5.2-0.5,7.6-1.6
		c2.4-1.1,4.3-2.6,5.8-4.6c1.5-2,2.4-4.3,2.6-7.1l0.1-1.5H710c-1.2,0-2.2-0.4-3.1-1.3c-0.9-0.9-1.3-1.9-1.3-3.1H724V531.6z"/>
	<path d="M774,510.2c3.5,2,6.2,4.8,8.2,8.3c2,3.5,3,7.4,3,11.6c0,4.3-1,8.2-3,11.8c-2,3.6-4.7,6.4-8.2,8.4
		c-3.5,2.1-7.4,3.1-11.7,3.1c-4.2,0-8.1-1-11.5-3c-3.5-2-6.2-4.8-8.2-8.3c-2-3.5-3-7.4-3-11.6c0-4.3,1-8.2,3-11.8
		c2-3.6,4.7-6.4,8.2-8.4c3.5-2.1,7.4-3.1,11.7-3.1C766.7,507.2,770.5,508.2,774,510.2z M771.5,546.5c2.7-1.7,4.8-3.9,6.4-6.7
		c1.5-2.8,2.3-5.9,2.3-9.3c0-3.4-0.8-6.5-2.3-9.4c-1.5-2.9-3.7-5.2-6.4-6.9c-2.7-1.7-5.8-2.6-9.2-2.6c-3.4,0-6.5,0.8-9.2,2.5
		c-2.7,1.7-4.8,3.9-6.3,6.7c-1.5,2.8-2.3,5.9-2.3,9.3c0,3.4,0.8,6.6,2.3,9.4c1.5,2.9,3.7,5.2,6.4,6.8c2.7,1.7,5.8,2.5,9.3,2.5
		C765.8,549,768.8,548.1,771.5,546.5z"/>
	<path d="M829.8,536c0.6,1.5,0.9,2.9,0.9,4.1c0,2.7-0.7,5-2,7c-1.3,2-3.1,3.6-5.4,4.6c-2.3,1.1-4.9,1.6-7.7,1.6
		c-2.8,0-5.4-0.6-7.8-1.8c-2.4-1.2-4.3-2.8-5.7-4.8c-1.4-2-2.3-4-2.5-6.2c0.4-0.1,0.9-0.2,1.4-0.2c0.9,0,1.8,0.2,2.6,0.7
		c0.8,0.5,1.5,1.2,1.9,2c1,1.8,2.5,3.2,4.3,4.2c1.8,1.1,3.7,1.6,5.8,1.6c2.8,0,5.2-0.7,7.2-2.1s3-3.5,3-6.1c0-2.4-0.8-4.2-2.5-5.5
		c-1.6-1.3-3.5-2.1-5.6-2.6l-6-1.2c-1.3-0.3-2.6-0.7-4-1.3c-1.4-0.6-2.6-1.5-3.7-2.5c-2.1-2-3.2-4.6-3.2-7.9c0-2.5,0.7-4.7,2-6.6
		c1.3-1.9,3.1-3.4,5.3-4.4c2.2-1.1,4.6-1.6,7.1-1.6c3.1,0,5.7,0.5,7.8,1.6c2.1,1.1,3.8,2.5,4.9,4.1c1.1,1.7,1.9,3.4,2.2,5.2
		l-0.3,0.1c-0.5,0.1-0.9,0.1-1.2,0.1c-0.9,0-1.7-0.2-2.4-0.6c-0.7-0.4-1.3-0.9-1.8-1.6c-2.2-3.1-5.3-4.6-9.2-4.6c-0.4,0-1,0-1.9,0.1
		c-2.1,0.2-3.9,1.1-5.4,2.6c-1.5,1.5-2.3,3.3-2.3,5.4c0,1.7,0.6,3.2,1.7,4.5c1.1,1.3,2.8,2.1,5,2.6l5.8,1.1c1.8,0.3,3.4,0.8,4.9,1.4
		c1.4,0.6,2.8,1.4,3.9,2.5C828.2,533.1,829.2,534.5,829.8,536z"/>
	<path d="M878.6,509c0.9-0.9,2-1.4,3.3-1.4v27.6c0,5.8-1.5,10.2-4.5,13.4c-3,3.2-7.2,4.8-12.5,4.8c-5.4,0-9.6-1.6-12.6-4.9
		c-3-3.2-4.5-7.6-4.5-13v-27.9c1.3,0,2.4,0.5,3.3,1.4c0.9,0.9,1.4,2,1.4,3.3v23c0,4.7,1.1,8.1,3.4,10.3c2.3,2.2,5.3,3.3,9.1,3.3
		c3.9,0,6.9-1.2,9-3.5c2.1-2.3,3.1-5.6,3.1-9.9v-23.2C877.3,511.1,877.7,510,878.6,509z"/>
</g>
</svg>
